<?xml version="1.0" encoding="UTF-8"?>
<!DOCTYPE svg PUBLIC "-//W3C//DTD SVG 1.1//EN" "http://www.w3.org/Graphics/SVG/1.1/DTD/svg11.dtd">
<svg xmlns="http://www.w3.org/2000/svg" version="1.1" width="750px" height="750px" style="shape-rendering:geometricPrecision; text-rendering:geometricPrecision; image-rendering:optimizeQuality; fill-rule:evenodd; clip-rule:evenodd" xmlns:xlink="http://www.w3.org/1999/xlink">
<g><path style="opacity:0.988" fill="#e4e9ea" d="M 741.5,303.5 C 738.378,306.446 735.044,309.279 731.5,312C 718.497,318.594 705.164,324.594 691.5,330C 682.189,335.489 672.523,340.156 662.5,344C 647.167,352.292 631.501,360.125 615.5,367.5C 616.11,366.609 616.443,365.609 616.5,364.5C 619.331,361.912 620.665,358.579 620.5,354.5C 621.268,353.737 621.768,352.737 622,351.5C 622.607,330.821 622.273,310.154 621,289.5C 620.362,284.41 617.528,281.41 612.5,280.5C 605.868,277.184 599.201,273.85 592.5,270.5C 585.247,265.868 577.58,261.701 569.5,258C 568.207,257.51 566.873,257.343 565.5,257.5C 562.008,256.59 559.008,254.924 556.5,252.5C 547.434,247.403 538.101,242.736 528.5,238.5C 526.223,237.579 523.89,236.913 521.5,236.5C 488.329,221.413 455.329,206.079 422.5,190.5C 418.431,187.132 413.764,184.799 408.5,183.5C 396.829,177.825 385.162,172.492 373.5,167.5C 381.073,163.376 388.74,159.21 396.5,155C 424.712,142.228 452.712,128.895 480.5,115C 483.456,114.011 486.456,113.178 489.5,112.5C 494.557,113.847 499.557,115.347 504.5,117C 582.562,153.198 660.228,190.198 737.5,228C 739.976,231.452 741.476,235.285 742,239.5C 742.179,258.544 742.679,277.544 743.5,296.5C 742.933,298.982 742.266,301.316 741.5,303.5 Z"/></g>
<g><path style="opacity:0.998" fill="#b23029" d="M 373.5,167.5 C 385.162,172.492 396.829,177.825 408.5,183.5C 412.569,186.868 417.236,189.201 422.5,190.5C 455.329,206.079 488.329,221.413 521.5,236.5C 525.443,239.478 529.777,241.978 534.5,244C 541.73,247.115 549.063,249.949 556.5,252.5C 559.008,254.924 562.008,256.59 565.5,257.5C 573.809,263.111 582.809,267.444 592.5,270.5C 599.201,273.85 605.868,277.184 612.5,280.5C 614.885,282.884 616.885,285.55 618.5,288.5C 618.372,305.509 618.705,322.509 619.5,339.5C 619.743,348.097 618.743,356.431 616.5,364.5C 616.443,365.609 616.11,366.609 615.5,367.5C 590.942,380.694 565.775,393.028 540,404.5C 526.178,411.994 512.011,418.827 497.5,425C 446.739,451.046 395.406,476.046 343.5,500C 341.833,501 340.5,502.333 339.5,504C 329.082,508.04 318.749,512.373 308.5,517C 293.801,525.515 278.801,533.182 263.5,540C 257.5,542 251.5,542 245.5,540C 193.682,516.425 142.348,491.758 91.5,466C 79.3164,462.456 67.9831,457.122 57.5,450C 45.0097,444.919 32.6764,439.585 20.5,434C 17.3333,430.833 14.1667,427.667 11,424.5C 10.4971,419.81 9.83038,415.143 9,410.5C 8.61742,411.056 8.11742,411.389 7.5,411.5C 7.78737,395.811 7.45403,380.145 6.5,364.5C 6.23027,355.045 9.23027,346.879 15.5,340C 111.426,294.055 206.759,247.388 301.5,200C 313.565,195.134 325.231,189.468 336.5,183C 346.104,179.197 355.438,174.864 364.5,170C 367.474,169.007 370.474,168.174 373.5,167.5 Z"/></g>
<g><path style="opacity:1" fill="#c67873" d="M 408.5,183.5 C 413.764,184.799 418.431,187.132 422.5,190.5C 417.236,189.201 412.569,186.868 408.5,183.5 Z"/></g>
<g><path style="opacity:1" fill="#d6b1af" d="M 521.5,236.5 C 523.89,236.913 526.223,237.579 528.5,238.5C 538.101,242.736 547.434,247.403 556.5,252.5C 549.063,249.949 541.73,247.115 534.5,244C 529.777,241.978 525.443,239.478 521.5,236.5 Z"/></g>
<g><path style="opacity:1" fill="#d2a19e" d="M 565.5,257.5 C 566.873,257.343 568.207,257.51 569.5,258C 577.58,261.701 585.247,265.868 592.5,270.5C 582.809,267.444 573.809,263.111 565.5,257.5 Z"/></g>
<g><path style="opacity:0.982" fill="#a47e45" d="M 741.5,303.5 C 741.201,334.014 741.535,364.514 742.5,395C 742.564,400.872 740.231,405.538 735.5,409C 722.29,414.394 709.623,420.727 697.5,428C 690.032,428.861 682.699,428.195 675.5,426C 662.144,421.995 648.811,417.995 635.5,414C 633.167,413.333 630.833,413.333 628.5,414C 539.763,457.535 451.43,501.868 363.5,547C 350.651,552.594 337.984,558.427 325.5,564.5C 325.667,579.504 325.5,594.504 325,609.5C 323.701,612.147 322.368,614.814 321,617.5C 313.935,623.284 306.435,628.45 298.5,633C 285.679,639.241 273.346,646.241 261.5,654C 254.031,656.228 246.698,655.895 239.5,653C 227.565,646.199 215.232,640.199 202.5,635C 198.281,632.448 195.114,628.948 193,624.5C 192.833,607.49 192.333,590.49 191.5,573.5C 190.692,573.192 190.025,572.692 189.5,572C 160.618,558.726 131.618,545.726 102.5,533C 98.4463,533.009 94.4463,533.676 90.5,535C 80.2141,538.488 69.8808,541.821 59.5,545C 55.5,545.667 51.5,545.667 47.5,545C 34.2627,537.55 20.9293,530.383 7.5,523.5C 8.39646,488.713 8.39646,451.38 7.5,411.5C 8.11742,411.389 8.61742,411.056 9,410.5C 9.83038,415.143 10.4971,419.81 11,424.5C 14.1667,427.667 17.3333,430.833 20.5,434C 32.6764,439.585 45.0097,444.919 57.5,450C 67.9831,457.122 79.3164,462.456 91.5,466C 142.348,491.758 193.682,516.425 245.5,540C 251.5,542 257.5,542 263.5,540C 278.801,533.182 293.801,525.515 308.5,517C 318.749,512.373 329.082,508.04 339.5,504C 340.5,502.333 341.833,501 343.5,500C 395.406,476.046 446.739,451.046 497.5,425C 512.011,418.827 526.178,411.994 540,404.5C 565.775,393.028 590.942,380.694 615.5,367.5C 631.501,360.125 647.167,352.292 662.5,344C 672.523,340.156 682.189,335.489 691.5,330C 705.164,324.594 718.497,318.594 731.5,312C 735.044,309.279 738.378,306.446 741.5,303.5 Z"/></g>
<g><path style="opacity:1" fill="#ddcccc" d="M 612.5,280.5 C 617.528,281.41 620.362,284.41 621,289.5C 622.273,310.154 622.607,330.821 622,351.5C 621.768,352.737 621.268,353.737 620.5,354.5C 620.874,332.309 620.207,310.309 618.5,288.5C 616.885,285.55 614.885,282.884 612.5,280.5 Z"/></g>
<g><path style="opacity:1" fill="#c57570" d="M 618.5,288.5 C 620.207,310.309 620.874,332.309 620.5,354.5C 620.665,358.579 619.331,361.912 616.5,364.5C 618.743,356.431 619.743,348.097 619.5,339.5C 618.705,322.509 618.372,305.509 618.5,288.5 Z"/></g>
<g><path style="opacity:0.004" fill="#000000" d="M 6.5,511.5 C 7.83333,512.167 7.83333,512.167 6.5,511.5 Z"/></g>
</svg>
