<?xml version="1.0" encoding="UTF-8"?>
<!DOCTYPE svg PUBLIC "-//W3C//DTD SVG 1.1//EN" "http://www.w3.org/Graphics/SVG/1.1/DTD/svg11.dtd">
<svg xmlns="http://www.w3.org/2000/svg" version="1.1" width="750px" height="750px" style="shape-rendering:geometricPrecision; text-rendering:geometricPrecision; image-rendering:optimizeQuality; fill-rule:evenodd; clip-rule:evenodd" xmlns:xlink="http://www.w3.org/1999/xlink">
<g><path style="opacity:0.98" fill="#30302f" d="M 389.5,67.5 C 387.747,73.4314 385.413,79.0981 382.5,84.5C 376.418,89.9222 371.418,96.2555 367.5,103.5C 360.486,110.514 353.153,117.181 345.5,123.5C 341.055,125.894 336.722,128.56 332.5,131.5C 327.289,133.853 321.956,136.02 316.5,138C 313.516,140.826 310.183,143.159 306.5,145C 288.357,146.873 270.69,144.873 253.5,139C 247.298,134.771 240.631,131.604 233.5,129.5C 241.078,119.77 250.412,111.936 261.5,106C 262.257,104.488 263.257,103.154 264.5,102C 278.114,94.0914 292.114,86.9248 306.5,80.5C 333.189,70.2042 360.856,65.8709 389.5,67.5 Z"/></g>
<g><path style="opacity:1" fill="#89df89" d="M 389.5,67.5 C 409.652,68.4286 428.986,72.5953 447.5,80C 469.365,88.702 489.365,100.535 507.5,115.5C 507.5,115.833 507.5,116.167 507.5,116.5C 504.284,117.065 501.951,118.732 500.5,121.5C 497.346,124.432 494.179,127.432 491,130.5C 486.034,140.147 481.034,149.814 476,159.5C 474.178,165.119 472.678,170.786 471.5,176.5C 470.834,181.656 470.501,186.989 470.5,192.5C 470.311,200.394 470.978,208.061 472.5,215.5C 473.489,218.726 474.489,222.06 475.5,225.5C 478.412,232.332 482.079,238.666 486.5,244.5C 503.051,265.543 524.051,279.876 549.5,287.5C 551.14,288.79 551.64,290.457 551,292.5C 544.728,307.368 538.228,322.035 531.5,336.5C 529.955,337.452 528.288,337.785 526.5,337.5C 523.366,334.769 519.699,333.436 515.5,333.5C 505.008,332.341 494.341,332.175 483.5,333C 477.897,333.576 472.564,334.743 467.5,336.5C 460.943,339.368 455.11,343.368 450,348.5C 444.615,354.884 439.615,361.55 435,368.5C 431.83,376.187 430.83,384.187 432,392.5C 435.297,403.36 438.963,414.026 443,424.5C 447.763,429.422 451.93,434.756 455.5,440.5C 453.627,443.566 451.461,446.566 449,449.5C 440.837,456.663 433.004,464.163 425.5,472C 423.803,472.384 422.137,472.218 420.5,471.5C 414.255,469.012 407.922,466.678 401.5,464.5C 400.737,463.732 399.737,463.232 398.5,463C 385.993,462.173 373.66,462.34 361.5,463.5C 350.738,465.021 340.071,467.521 329.5,471C 326.182,473.129 322.849,474.962 319.5,476.5C 315.63,477.263 312.63,479.263 310.5,482.5C 306.5,484.5 303.5,487.5 301.5,491.5C 298.864,494.31 296.364,497.31 294,500.5C 291.612,506.277 288.945,511.944 286,517.5C 285.605,520.207 285.105,522.873 284.5,525.5C 283.691,527.292 283.191,529.292 283,531.5C 282.5,541.828 282.334,552.161 282.5,562.5C 269.856,567.66 256.856,572.16 243.5,576C 223.046,581.428 202.38,585.928 181.5,589.5C 182.167,590.167 182.833,590.833 183.5,591.5C 182.873,592.417 182.539,593.417 182.5,594.5C 174.755,587.092 167.755,579.092 161.5,570.5C 163.717,569.631 166.05,569.298 168.5,569.5C 173.852,564.629 179.519,559.962 185.5,555.5C 186.761,552.248 188.428,549.248 190.5,546.5C 193.603,541.948 196.936,537.614 200.5,533.5C 202.143,531.027 204.31,529.027 207,527.5C 208.309,522.889 210.142,518.556 212.5,514.5C 213.374,511.211 214.041,507.877 214.5,504.5C 216.419,501.736 217.752,498.736 218.5,495.5C 219.979,491.091 220.646,486.424 220.5,481.5C 220.646,476.576 219.979,471.909 218.5,467.5C 217.669,461.844 216.835,456.177 216,450.5C 215.901,448.347 215.067,446.681 213.5,445.5C 211.25,437.216 207.583,429.716 202.5,423C 196.46,417.291 190.126,411.957 183.5,407C 177.794,403.819 171.794,401.319 165.5,399.5C 160.977,397.7 156.31,396.2 151.5,395C 143.323,394.177 135.323,394.344 127.5,395.5C 124.141,397.219 120.475,398.386 116.5,399C 113.26,401.091 109.926,402.924 106.5,404.5C 106.538,369.927 112.705,336.593 125,304.5C 131.923,288.314 138.59,271.981 145,255.5C 162.988,218.167 184.988,183.5 211,151.5C 218.342,143.992 225.842,136.658 233.5,129.5C 240.631,131.604 247.298,134.771 253.5,139C 270.69,144.873 288.357,146.873 306.5,145C 310.183,143.159 313.516,140.826 316.5,138C 321.956,136.02 327.289,133.853 332.5,131.5C 336.722,128.56 341.055,125.894 345.5,123.5C 354.491,118.502 361.825,111.835 367.5,103.5C 372.858,97.4721 377.858,91.1388 382.5,84.5C 385.413,79.0981 387.747,73.4314 389.5,67.5 Z"/></g>
<g><path style="opacity:1" fill="#5d865c" d="M 382.5,84.5 C 377.858,91.1388 372.858,97.4721 367.5,103.5C 371.418,96.2555 376.418,89.9222 382.5,84.5 Z"/></g>
<g><path style="opacity:0.993" fill="#303030" d="M 507.5,116.5 C 507.5,116.167 507.5,115.833 507.5,115.5C 509.255,116.072 510.922,116.906 512.5,118C 523.353,128.353 533.686,139.186 543.5,150.5C 549.241,158.715 555.074,166.715 561,174.5C 565.756,182.406 570.256,190.406 574.5,198.5C 573.203,201.79 572.036,205.123 571,208.5C 570.485,217.955 569.151,227.289 567,236.5C 561.654,252.371 556.82,268.371 552.5,284.5C 552.685,285.584 553.018,286.584 553.5,287.5C 552.167,287.5 550.833,287.5 549.5,287.5C 524.051,279.876 503.051,265.543 486.5,244.5C 484.102,237.363 480.436,231.03 475.5,225.5C 474.489,222.06 473.489,218.726 472.5,215.5C 471.673,202.518 471.339,189.518 471.5,176.5C 472.678,170.786 474.178,165.119 476,159.5C 481.034,149.814 486.034,140.147 491,130.5C 494.179,127.432 497.346,124.432 500.5,121.5C 503.593,120.786 506.26,119.286 508.5,117C 508.272,116.601 507.938,116.435 507.5,116.5 Z"/></g>
<g><path style="opacity:1" fill="#547654" d="M 507.5,116.5 C 507.938,116.435 508.272,116.601 508.5,117C 506.26,119.286 503.593,120.786 500.5,121.5C 501.951,118.732 504.284,117.065 507.5,116.5 Z"/></g>
<g><path style="opacity:1" fill="#618e60" d="M 367.5,103.5 C 361.825,111.835 354.491,118.502 345.5,123.5C 353.153,117.181 360.486,110.514 367.5,103.5 Z"/></g>
<g><path style="opacity:0.993" fill="#1e1e1e" d="M 574.5,198.5 C 594.242,225.315 609.242,254.648 619.5,286.5C 617.181,289.294 614.181,291.128 610.5,292C 591.705,294.159 573.039,293.326 554.5,289.5C 554.137,288.817 553.804,288.15 553.5,287.5C 553.018,286.584 552.685,285.584 552.5,284.5C 556.82,268.371 561.654,252.371 567,236.5C 569.151,227.289 570.485,217.955 571,208.5C 572.036,205.123 573.203,201.79 574.5,198.5 Z"/></g>
<g><path style="opacity:1" fill="#496048" d="M 471.5,176.5 C 471.339,189.518 471.673,202.518 472.5,215.5C 470.978,208.061 470.311,200.394 470.5,192.5C 470.501,186.989 470.834,181.656 471.5,176.5 Z"/></g>
<g><path style="opacity:1" fill="#4e6a4e" d="M 330.5,217.5 C 319.553,215.376 308.553,215.042 297.5,216.5C 301.742,215.032 306.242,214.366 311,214.5C 317.799,214.446 324.299,215.446 330.5,217.5 Z"/></g>
<g><path style="opacity:1" fill="#303030" d="M 330.5,217.5 C 360.906,227.918 376.239,249.251 376.5,281.5C 376.378,299.658 372.044,316.658 363.5,332.5C 347.842,360.325 324.842,379.158 294.5,389C 250.368,397.363 222.868,379.863 212,336.5C 209.266,305.707 217.6,278.374 237,254.5C 249.219,240.27 263.719,229.104 280.5,221C 286.126,219.178 291.792,217.678 297.5,216.5C 308.553,215.042 319.553,215.376 330.5,217.5 Z"/></g>
<g><path style="opacity:1" fill="#4b644a" d="M 475.5,225.5 C 480.436,231.03 484.102,237.363 486.5,244.5C 482.079,238.666 478.412,232.332 475.5,225.5 Z"/></g>
<g><path style="opacity:0.997" fill="#68bf86" d="M 619.5,286.5 C 621.451,288.48 622.951,290.813 624,293.5C 628.105,306.462 632.105,319.462 636,332.5C 649.319,384.282 648.485,435.949 633.5,487.5C 630.916,487.431 628.916,486.265 627.5,484C 625.5,483.333 623.5,483.333 621.5,484C 617.249,486.244 613.249,488.911 609.5,492C 607.846,492.608 606.179,493.108 604.5,493.5C 599.895,495.471 595.562,497.971 591.5,501C 588.882,503.106 586.882,505.606 585.5,508.5C 581.952,511.906 579.118,515.906 577,520.5C 572.425,530.465 568.925,540.799 566.5,551.5C 565.778,551.918 565.278,552.584 565,553.5C 563.365,566.307 563.199,578.974 564.5,591.5C 565.369,593.717 565.702,596.05 565.5,598.5C 503.639,657.626 429.639,683.126 343.5,675C 309.128,670.098 276.461,659.765 245.5,644C 221.718,631.295 200.718,614.795 182.5,594.5C 182.539,593.417 182.873,592.417 183.5,591.5C 182.833,590.833 182.167,590.167 181.5,589.5C 202.38,585.928 223.046,581.428 243.5,576C 256.856,572.16 269.856,567.66 282.5,562.5C 282.175,570.352 282.508,578.018 283.5,585.5C 284.443,603.973 290.277,620.64 301,635.5C 306.239,641.41 312.072,646.577 318.5,651C 332.515,657.168 346.515,663.335 360.5,669.5C 369.691,672.455 379.025,673.121 388.5,671.5C 406.266,668.886 423.266,663.886 439.5,656.5C 442.833,656.5 444.5,654.833 444.5,651.5C 449.35,649.328 453.35,645.994 456.5,641.5C 465.201,631.074 470.868,619.074 473.5,605.5C 475.675,582.446 474.342,559.612 469.5,537C 466.793,529.673 464.626,522.173 463,514.5C 456.811,500.489 447.311,489.489 434.5,481.5C 432.536,479.873 431.203,477.873 430.5,475.5C 427.521,474.683 424.521,473.849 421.5,473C 420.944,472.617 420.611,472.117 420.5,471.5C 422.137,472.218 423.803,472.384 425.5,472C 433.004,464.163 440.837,456.663 449,449.5C 451.461,446.566 453.627,443.566 455.5,440.5C 456.473,442.139 457.806,443.473 459.5,444.5C 461.285,448.12 463.952,450.953 467.5,453C 485.159,461.781 503.826,464.448 523.5,461C 531.126,460.568 538.459,458.901 545.5,456C 552.635,447.864 560.135,440.03 568,432.5C 570.553,426.175 572.719,419.675 574.5,413C 573.779,404.851 573.279,396.684 573,388.5C 566.685,368.401 554.852,352.234 537.5,340C 535.527,339.505 533.527,339.338 531.5,339.5C 529.833,338.833 528.167,338.167 526.5,337.5C 528.288,337.785 529.955,337.452 531.5,336.5C 538.228,322.035 544.728,307.368 551,292.5C 551.64,290.457 551.14,288.79 549.5,287.5C 550.833,287.5 552.167,287.5 553.5,287.5C 553.804,288.15 554.137,288.817 554.5,289.5C 573.039,293.326 591.705,294.159 610.5,292C 614.181,291.128 617.181,289.294 619.5,286.5 Z"/></g>
<g><path style="opacity:1" fill="#577956" d="M 515.5,333.5 C 499.375,332.869 483.375,333.869 467.5,336.5C 472.564,334.743 477.897,333.576 483.5,333C 494.341,332.175 505.008,332.341 515.5,333.5 Z"/></g>
<g><path style="opacity:1" fill="#303030" d="M 515.5,333.5 C 519.699,333.436 523.366,334.769 526.5,337.5C 528.167,338.167 529.833,338.833 531.5,339.5C 528.956,339.104 526.789,339.771 525,341.5C 521.243,360.677 513.91,378.343 503,394.5C 490.77,412.566 475.936,428.232 458.5,441.5C 459.127,442.417 459.461,443.417 459.5,444.5C 457.806,443.473 456.473,442.139 455.5,440.5C 451.93,434.756 447.763,429.422 443,424.5C 438.963,414.026 435.297,403.36 432,392.5C 430.83,384.187 431.83,376.187 435,368.5C 439.615,361.55 444.615,354.884 450,348.5C 455.11,343.368 460.943,339.368 467.5,336.5C 483.375,333.869 499.375,332.869 515.5,333.5 Z"/></g>
<g><path style="opacity:1" fill="#1f201f" d="M 531.5,339.5 C 533.527,339.338 535.527,339.505 537.5,340C 554.852,352.234 566.685,368.401 573,388.5C 573.279,396.684 573.779,404.851 574.5,413C 572.719,419.675 570.553,426.175 568,432.5C 560.135,440.03 552.635,447.864 545.5,456C 538.459,458.901 531.126,460.568 523.5,461C 503.826,464.448 485.159,461.781 467.5,453C 463.952,450.953 461.285,448.12 459.5,444.5C 459.461,443.417 459.127,442.417 458.5,441.5C 475.936,428.232 490.77,412.566 503,394.5C 513.91,378.343 521.243,360.677 525,341.5C 526.789,339.771 528.956,339.104 531.5,339.5 Z"/></g>
<g><path style="opacity:1" fill="#577c57" d="M 127.5,395.5 C 135.323,394.344 143.323,394.177 151.5,395C 156.31,396.2 160.977,397.7 165.5,399.5C 160.073,398.535 154.739,397.369 149.5,396C 142.174,395.5 134.841,395.334 127.5,395.5 Z"/></g>
<g><path style="opacity:0.991" fill="#2f302f" d="M 127.5,395.5 C 134.841,395.334 142.174,395.5 149.5,396C 154.739,397.369 160.073,398.535 165.5,399.5C 171.794,401.319 177.794,403.819 183.5,407C 190.126,411.957 196.46,417.291 202.5,423C 207.583,429.716 211.25,437.216 213.5,445.5C 218.288,465.19 218.622,484.857 214.5,504.5C 214.041,507.877 213.374,511.211 212.5,514.5C 211.624,514.369 210.957,514.702 210.5,515.5C 207.142,521.554 203.809,527.554 200.5,533.5C 196.936,537.614 193.603,541.948 190.5,546.5C 183.188,554.146 175.855,561.813 168.5,569.5C 166.05,569.298 163.717,569.631 161.5,570.5C 159.91,570.372 158.577,569.705 157.5,568.5C 152.199,557.965 146.032,547.965 139,538.5C 135.071,529.257 130.737,520.257 126,511.5C 118.938,491.83 113.271,471.83 109,451.5C 107.86,438.287 106.36,425.12 104.5,412C 104.41,409.256 105.077,406.756 106.5,404.5C 109.926,402.924 113.26,401.091 116.5,399C 120.475,398.386 124.141,397.219 127.5,395.5 Z"/></g>
<g><path style="opacity:1" fill="#5e8a5e" d="M 361.5,463.5 C 373.66,462.34 385.993,462.173 398.5,463C 399.737,463.232 400.737,463.732 401.5,464.5C 388.196,463.575 374.863,463.242 361.5,463.5 Z"/></g>
<g><path style="opacity:1" fill="#303130" d="M 361.5,463.5 C 374.863,463.242 388.196,463.575 401.5,464.5C 407.922,466.678 414.255,469.012 420.5,471.5C 420.611,472.117 420.944,472.617 421.5,473C 424.521,473.849 427.521,474.683 430.5,475.5C 431.203,477.873 432.536,479.873 434.5,481.5C 430.479,479.873 426.812,477.706 423.5,475C 420.442,474.542 417.442,474.876 414.5,476C 397.198,492.653 378.865,507.987 359.5,522C 339.664,533.086 318.997,542.253 297.5,549.5C 293.978,552.851 290.144,555.851 286,558.5C 285.454,561.379 284.621,564.046 283.5,566.5C 283.329,552.816 283.662,539.149 284.5,525.5C 285.105,522.873 285.605,520.207 286,517.5C 288.945,511.944 291.612,506.277 294,500.5C 296.364,497.31 298.864,494.31 301.5,491.5C 304.833,488.833 307.833,485.833 310.5,482.5C 314.25,481.589 317.25,479.589 319.5,476.5C 322.849,474.962 326.182,473.129 329.5,471C 340.071,467.521 350.738,465.021 361.5,463.5 Z"/></g>
<g><path style="opacity:1" fill="#1f1f1f" d="M 434.5,481.5 C 447.311,489.489 456.811,500.489 463,514.5C 464.626,522.173 466.793,529.673 469.5,537C 474.342,559.612 475.675,582.446 473.5,605.5C 470.868,619.074 465.201,631.074 456.5,641.5C 452.765,643.725 449.432,646.558 446.5,650C 445.552,650.483 444.552,650.649 443.5,650.5C 443.343,653.318 442.009,655.318 439.5,656.5C 423.266,663.886 406.266,668.886 388.5,671.5C 379.089,671.731 369.756,671.064 360.5,669.5C 346.515,663.335 332.515,657.168 318.5,651C 312.072,646.577 306.239,641.41 301,635.5C 290.277,620.64 284.443,603.973 283.5,585.5C 283.5,579.167 283.5,572.833 283.5,566.5C 284.621,564.046 285.454,561.379 286,558.5C 290.144,555.851 293.978,552.851 297.5,549.5C 318.997,542.253 339.664,533.086 359.5,522C 378.865,507.987 397.198,492.653 414.5,476C 417.442,474.876 420.442,474.542 423.5,475C 426.812,477.706 430.479,479.873 434.5,481.5 Z"/></g>
<g><path style="opacity:1" fill="#425241" d="M 213.5,445.5 C 215.067,446.681 215.901,448.347 216,450.5C 216.835,456.177 217.669,461.844 218.5,467.5C 218.5,476.833 218.5,486.167 218.5,495.5C 217.752,498.736 216.419,501.736 214.5,504.5C 218.622,484.857 218.288,465.19 213.5,445.5 Z"/></g>
<g><path style="opacity:1" fill="#557854" d="M 319.5,476.5 C 317.25,479.589 314.25,481.589 310.5,482.5C 312.63,479.263 315.63,477.263 319.5,476.5 Z"/></g>
<g><path style="opacity:1" fill="#5b825a" d="M 310.5,482.5 C 307.833,485.833 304.833,488.833 301.5,491.5C 303.5,487.5 306.5,484.5 310.5,482.5 Z"/></g>
<g><path style="opacity:0.994" fill="#1f201f" d="M 633.5,487.5 C 629.111,497.614 625.278,507.947 622,518.5C 616.855,528.121 611.688,537.788 606.5,547.5C 595.067,564.019 582.901,580.019 570,595.5C 568.871,597.141 567.371,598.141 565.5,598.5C 565.702,596.05 565.369,593.717 564.5,591.5C 564.121,578.099 564.788,564.765 566.5,551.5C 568.925,540.799 572.425,530.465 577,520.5C 579.118,515.906 581.952,511.906 585.5,508.5C 591.592,503.061 597.926,498.061 604.5,493.5C 606.179,493.108 607.846,492.608 609.5,492C 613.249,488.911 617.249,486.244 621.5,484C 623.5,483.333 625.5,483.333 627.5,484C 628.916,486.265 630.916,487.431 633.5,487.5 Z"/></g>
<g><path style="opacity:1" fill="#6aa169" d="M 218.5,467.5 C 219.979,471.909 220.646,476.576 220.5,481.5C 220.646,486.424 219.979,491.091 218.5,495.5C 218.5,486.167 218.5,476.833 218.5,467.5 Z"/></g>
<g><path style="opacity:1" fill="#426b51" d="M 604.5,493.5 C 597.926,498.061 591.592,503.061 585.5,508.5C 586.882,505.606 588.882,503.106 591.5,501C 595.562,497.971 599.895,495.471 604.5,493.5 Z"/></g>
<g><path style="opacity:1" fill="#689c67" d="M 212.5,514.5 C 210.142,518.556 208.309,522.889 207,527.5C 204.31,529.027 202.143,531.027 200.5,533.5C 203.809,527.554 207.142,521.554 210.5,515.5C 210.957,514.702 211.624,514.369 212.5,514.5 Z"/></g>
<g><path style="opacity:1" fill="#557e59" d="M 284.5,525.5 C 283.662,539.149 283.329,552.816 283.5,566.5C 283.5,572.833 283.5,579.167 283.5,585.5C 282.508,578.018 282.175,570.352 282.5,562.5C 282.334,552.161 282.5,541.828 283,531.5C 283.191,529.292 283.691,527.292 284.5,525.5 Z"/></g>
<g><path style="opacity:1" fill="#699f69" d="M 190.5,546.5 C 188.428,549.248 186.761,552.248 185.5,555.5C 179.519,559.962 173.852,564.629 168.5,569.5C 175.855,561.813 183.188,554.146 190.5,546.5 Z"/></g>
<g><path style="opacity:1" fill="#436e53" d="M 566.5,551.5 C 564.788,564.765 564.121,578.099 564.5,591.5C 563.199,578.974 563.365,566.307 565,553.5C 565.278,552.584 565.778,551.918 566.5,551.5 Z"/></g>
<g><path style="opacity:1" fill="#4e8361" d="M 456.5,641.5 C 453.35,645.994 449.35,649.328 444.5,651.5C 444.5,654.833 442.833,656.5 439.5,656.5C 442.009,655.318 443.343,653.318 443.5,650.5C 444.552,650.649 445.552,650.483 446.5,650C 449.432,646.558 452.765,643.725 456.5,641.5 Z"/></g>
<g><path style="opacity:1" fill="#3b5c47" d="M 360.5,669.5 C 369.756,671.064 379.089,671.731 388.5,671.5C 379.025,673.121 369.691,672.455 360.5,669.5 Z"/></g>
</svg>
