<svg id="Grupo_1" data-name="Grupo 1" xmlns="http://www.w3.org/2000/svg" width="2000" height="2000" viewBox="0 0 2000 2000">
  <defs>
    <style>
      .cls-1 {
        fill: #7e560e;
      }

      .cls-1, .cls-2, .cls-3, .cls-4, .cls-5, .cls-6 {
        fill-rule: evenodd;
      }

      .cls-2 {
        fill: #533601;
      }

      .cls-3 {
        fill: #e3b136;
      }

      .cls-4 {
        fill: #865f10;
      }

      .cls-5 {
        fill: #684505;
      }

      .cls-6 {
        fill: #fff;
        stroke: #fff;
        stroke-linecap: round;
        stroke-linejoin: round;
        stroke-width: 27px;
      }
    </style>
  </defs>
  <path id="Forma_3_copia" data-name="Forma 3 copia" class="cls-1" d="M646.812,791.7s63.871-176.794,25-226c-20.335-25.743-126.275,49.115-165,55-50.54,7.681-33-48-33-48s60.707-263.942,321-190c195.934,55.659,193,282,193,282l-142,175Z"/>
  <path id="Forma_3_copia_2" data-name="Forma 3 copia 2" class="cls-2" d="M1205.04,1257.64s168.7-82.93,221.88-49.71c27.83,17.38-34.92,130.91-36.51,170.05-2.08,51.08,51.34,27.52,51.34,27.52s255.66-89.37,153.53-339.95c-76.87-188.626-301.51-160.814-301.51-160.814L1135.45,1065.12Z"/>
  <path id="Forma_1" data-name="Forma 1" class="cls-3" d="M664.812,653.7s-119.865,137.843-217,358c-131.949,299.07-252,705-252,705s-10.02,66.24,21,97c28.906,28.67,99,22,99,22s341.906-132.64,628-324c241.638-161.62,435-387,435-387s197.11-259.506-182-508C879.861,408.953,664.812,653.7,664.812,653.7Z"/>
  <path id="Forma_3" data-name="Forma 3" class="cls-4" d="M937.812,544.7s50.871-135.794,12-185c-20.335-25.743-126.275,49.115-165,55-50.54,7.681-33-48-33-48s60.707-263.942,321-190c195.94,55.659,193,282,193,282l-132,123s-34.94,20.039-79,6C998.413,569.733,937.812,544.7,937.812,544.7Z"/>
  <path id="Forma_3_copia_2-2" data-name="Forma 3 copia 2" class="cls-5" d="M1419.81,939.7s128.1-63.968,181.29-30.746c27.82,17.381-34.93,130.913-36.52,170.053-2.08,51.07,51.34,27.52,51.34,27.52s255.66-89.37,153.54-339.955c-76.88-188.623-301.52-160.811-301.52-160.811L1351.81,759.7s-16.62,84.623,16,136C1384.99,922.752,1419.81,939.7,1419.81,939.7Z"/>
  <path id="Forma_2" data-name="Forma 2" class="cls-1" d="M1128.81,583.7a30.609,30.609,0,0,0,5-4c24.95-23.6,138.83-150.1,245-214,133.8-80.518,236-67,236-67s6.44,93.863-77,235c-60.2,101.835-186,227-186,227s-89.06-.916-142-48C1153.9,662.972,1122.13,585.872,1128.81,583.7ZM239,1688l109-313"/>
  <path id="Forma_4" data-name="Forma 4" class="cls-6" d="M349,1641.22c75.879-79.86,246.786-544.42,246.786-544.42L478.2,1120.29S118.24,1884.08,349,1641.22Zm149.849-586.93,114.461-20.55L715.858,825.506S660.84,797.619,610,851.219C552.721,911.607,498.849,1054.29,498.849,1054.29Z"/>
</svg>
