<svg xmlns="http://www.w3.org/2000/svg" xmlns:xlink="http://www.w3.org/1999/xlink" width="1024" height="1024" viewBox="0 0 1024 1024">
  <defs>
    <style>
      .cls-1 {
        fill: #7071b0;
      }

      .cls-1, .cls-2, .cls-3 {
        fill-rule: evenodd;
      }

      .cls-2 {
        fill: url(#linear-gradient);
      }

      .cls-3 {
        fill: url(#linear-gradient-2);
      }
    </style>
    <linearGradient id="linear-gradient" x1="252.813" y1="922" x2="252.813" y2="108" gradientUnits="userSpaceOnUse">
      <stop offset="0" stop-color="#7071b0"/>
      <stop offset="1" stop-color="#9899d3"/>
    </linearGradient>
    <linearGradient id="linear-gradient-2" x1="769" x2="769" xlink:href="#linear-gradient"/>
  </defs>
  <path id="Forma_2" data-name="Forma 2" class="cls-1" d="M408,109s52.268,7,104,7c50.759,0,101-7,101-7V257s-50.1-35.176-101-35c-51.453.178-103.7,35.7-103,35C410.4,255.6,408,109,408,109Z"/>
  <path id="Forma_1" data-name="Forma 1" class="cls-2" d="M410,109s-81.022-9.189-159,27.982C152.377,183.993,55,272.892,55,272.892S41.779,414.358,69,557.707C93.745,688.016,158.536,818.074,170,879.5c3.766,20.181,4,30.98,4,30.98s3.464,6.015,8,7c21.822,4.716,88.643,11.1,139-11.992,76.8-35.21,132-122.92,132-122.92s3.856-118.111-5-256.833c-4.781-74.894-17.371-156.647-24-226.852C413.821,191.078,410,109,410,109Z"/>
  <path id="Forma_1_copia" data-name="Forma 1 copia" class="cls-3" d="M611.837,109s81.009-9.189,158.975,27.982c98.608,47.012,195.97,135.911,195.97,135.911s13.218,141.466-14,284.815C928.043,688.016,863.262,818.074,851.8,879.5c-3.766,20.181-4,30.98-4,30.98s-3.463,6.015-8,7c-21.818,4.716-88.629,11.1-138.978-11.992-76.784-35.21-131.979-122.92-131.979-122.92s-3.856-118.111,5-256.833c4.78-74.894,17.368-156.647,24-226.852C608.016,191.078,611.837,109,611.837,109Z"/>
</svg>
