<?xml version="1.0" encoding="UTF-8"?>
<!DOCTYPE svg PUBLIC "-//W3C//DTD SVG 1.1//EN" "http://www.w3.org/Graphics/SVG/1.1/DTD/svg11.dtd">
<svg xmlns="http://www.w3.org/2000/svg" version="1.1" width="750px" height="750px" style="shape-rendering:geometricPrecision; text-rendering:geometricPrecision; image-rendering:optimizeQuality; fill-rule:evenodd; clip-rule:evenodd" xmlns:xlink="http://www.w3.org/1999/xlink">
<g><path style="opacity:0.995" fill="#424242" d="M 658.5,353.5 C 653.628,369.933 648.795,386.599 644,403.5C 623.411,443.241 593.911,474.407 555.5,497C 553.959,498.371 552.625,499.871 551.5,501.5C 548.821,502.226 546.154,503.059 543.5,504C 532.634,510.621 521.301,516.287 509.5,521C 500.188,523.575 491.188,526.908 482.5,531C 433.353,543.987 383.353,548.987 332.5,546C 324.201,544.578 315.867,543.411 307.5,542.5C 305.723,541.4 303.723,540.566 301.5,540C 245.113,531.773 195.447,509.106 152.5,472C 124.695,446.53 105.528,415.696 95,379.5C 91.4444,363.782 89.611,347.782 89.5,331.5C 91.1589,302.203 99.8255,275.203 115.5,250.5C 135.093,222.663 159.093,199.329 187.5,180.5C 251.598,142.84 320.932,125.673 395.5,129C 453.877,131.587 508.21,147.254 558.5,176C 590.768,195.439 616.768,221.105 636.5,253C 654.497,284.139 661.83,317.639 658.5,353.5 Z"/></g>
<g><path style="opacity:0.004" fill="#000000" d="M 97.5,214.5 C 98.8333,215.167 98.8333,215.167 97.5,214.5 Z"/></g>
<g><path style="opacity:1" fill="#373737" d="M 474.5,389.5 C 445.718,370.267 417.051,350.767 388.5,331C 382.402,327.682 375.902,325.516 369,324.5C 364.916,324.714 361.083,325.714 357.5,327.5C 351.5,330.167 347.167,334.5 344.5,340.5C 343.962,342.117 343.629,343.784 343.5,345.5C 342.883,345.611 342.383,345.944 342,346.5C 340.534,354.287 342.034,361.287 346.5,367.5C 350.253,372.75 354.92,377.25 360.5,381C 383.011,396.03 405.344,411.196 427.5,426.5C 425.879,428.117 423.879,429.284 421.5,430C 377.467,443.739 335.467,439.406 295.5,417C 256.62,389.983 246.787,354.817 266,311.5C 281.579,288.595 302.746,273.428 329.5,266C 344.226,263.018 359.059,260.851 374,259.5C 397.751,260.148 420.584,265.981 442.5,277C 465.596,289.04 480.763,307.54 488,332.5C 492.193,352.861 488.693,371.694 477.5,389C 476.552,389.483 475.552,389.649 474.5,389.5 Z"/></g>
<g><path style="opacity:1" fill="#ce3232" d="M 474.5,389.5 C 493.708,402.931 513.042,416.097 532.5,429C 536.728,432.065 540.395,435.565 543.5,439.5C 543.642,443.056 544.476,446.39 546,449.5C 546.499,453.486 546.666,457.486 546.5,461.5C 544.335,466.999 541.335,471.999 537.5,476.5C 533.703,477.709 530.036,479.209 526.5,481C 521.845,481.499 517.179,481.666 512.5,481.5C 510.188,480.68 507.854,479.847 505.5,479C 479.639,461.309 453.639,443.809 427.5,426.5C 405.344,411.196 383.011,396.03 360.5,381C 354.92,377.25 350.253,372.75 346.5,367.5C 344.151,360.38 343.151,353.046 343.5,345.5C 343.629,343.784 343.962,342.117 344.5,340.5C 348.5,335.833 352.833,331.5 357.5,327.5C 361.083,325.714 364.916,324.714 369,324.5C 375.902,325.516 382.402,327.682 388.5,331C 417.051,350.767 445.718,370.267 474.5,389.5 Z"/></g>
<g><path style="opacity:1" fill="#8f3534" d="M 357.5,327.5 C 352.833,331.5 348.5,335.833 344.5,340.5C 347.167,334.5 351.5,330.167 357.5,327.5 Z"/></g>
<g><path style="opacity:0.981" fill="#808080" d="M 89.5,331.5 C 89.611,347.782 91.4444,363.782 95,379.5C 105.528,415.696 124.695,446.53 152.5,472C 195.447,509.106 245.113,531.773 301.5,540C 303.723,540.566 305.723,541.4 307.5,542.5C 304.518,542.037 301.518,541.704 298.5,541.5C 300.716,576.54 301.382,611.54 300.5,646.5C 243.098,636.292 192.431,612.458 148.5,575C 98.0375,525.03 78.0375,464.363 88.5,393C 88.5,372.331 88.8334,351.831 89.5,331.5 Z"/></g>
<g><path style="opacity:0.97" fill="#808080" d="M 658.5,353.5 C 659.43,388.029 659.597,422.696 659,457.5C 648.879,515.725 619.379,561.058 570.5,593.5C 568.799,560.339 567.132,527.006 565.5,493.5C 564.448,493.351 563.448,493.517 562.5,494C 558.822,496.504 555.156,499.004 551.5,501.5C 552.625,499.871 553.959,498.371 555.5,497C 593.911,474.407 623.411,443.241 644,403.5C 648.795,386.599 653.628,369.933 658.5,353.5 Z"/></g>
<g><path style="opacity:1" fill="#993433" d="M 343.5,345.5 C 343.151,353.046 344.151,360.38 346.5,367.5C 342.034,361.287 340.534,354.287 342,346.5C 342.383,345.944 342.883,345.611 343.5,345.5 Z"/></g>
<g><path style="opacity:1" fill="#ab3736" d="M 543.5,439.5 C 547.424,446.443 548.424,453.777 546.5,461.5C 546.666,457.486 546.499,453.486 546,449.5C 544.476,446.39 543.642,443.056 543.5,439.5 Z"/></g>
<g><path style="opacity:1" fill="#7a3c3b" d="M 537.5,476.5 C 537.631,477.376 537.298,478.043 536.5,478.5C 528.778,482.41 520.778,483.41 512.5,481.5C 517.179,481.666 521.845,481.499 526.5,481C 530.036,479.209 533.703,477.709 537.5,476.5 Z"/></g>
<g><path style="opacity:0.999" fill="#9e9e9e" d="M 570.5,593.5 C 570.063,595.074 569.063,596.241 567.5,597C 531.784,619.361 493.451,635.361 452.5,645C 447.566,646.16 442.566,646.66 437.5,646.5C 417.21,648.676 396.877,650.343 376.5,651.5C 372.761,651.514 369.428,652.18 366.5,653.5C 354.525,652.751 342.525,652.251 330.5,652C 320.582,649.636 310.582,647.803 300.5,646.5C 301.382,611.54 300.716,576.54 298.5,541.5C 301.518,541.704 304.518,542.037 307.5,542.5C 315.867,543.411 324.201,544.578 332.5,546C 383.353,548.987 433.353,543.987 482.5,531C 491.188,526.908 500.188,523.575 509.5,521C 521.301,516.287 532.634,510.621 543.5,504C 546.154,503.059 548.821,502.226 551.5,501.5C 555.156,499.004 558.822,496.504 562.5,494C 563.448,493.517 564.448,493.351 565.5,493.5C 567.132,527.006 568.799,560.339 570.5,593.5 Z"/></g>
<g><path style="opacity:0.107" fill="#cacaca" d="M 437.5,646.5 C 435.166,647.124 432.833,647.957 430.5,649C 409.301,652.266 387.967,653.766 366.5,653.5C 369.428,652.18 372.761,651.514 376.5,651.5C 396.877,650.343 417.21,648.676 437.5,646.5 Z"/></g>
</svg>
