<?xml version="1.0" encoding="UTF-8"?>
<!DOCTYPE svg PUBLIC "-//W3C//DTD SVG 1.1//EN" "http://www.w3.org/Graphics/SVG/1.1/DTD/svg11.dtd">
<svg xmlns="http://www.w3.org/2000/svg" version="1.1" width="750px" height="750px" style="shape-rendering:geometricPrecision; text-rendering:geometricPrecision; image-rendering:optimizeQuality; fill-rule:evenodd; clip-rule:evenodd" xmlns:xlink="http://www.w3.org/1999/xlink">
<g><path style="opacity:0.99" fill="#f1f1f1" d="M 548.5,46.5 C 570.921,46.7691 584.421,57.7691 589,79.5C 589.985,139.211 589.651,198.878 588,258.5C 585.173,267.309 580.006,274.476 572.5,280C 555.698,293.636 539.365,307.802 523.5,322.5C 579.731,383.732 598.564,455.065 580,536.5C 556.713,615.121 506.213,667.621 428.5,694C 336.279,717.494 257.779,694.661 193,625.5C 137.674,555.573 125.341,478.573 156,394.5C 178.796,341.704 215.963,302.537 267.5,277C 352.833,203.667 438.167,130.333 523.5,57C 530.975,51.237 539.309,47.737 548.5,46.5 Z M 522.5,487.5 C 482.811,505.505 445.478,501.672 410.5,476C 404.292,469.461 398.459,462.627 393,455.5C 353.933,416.734 307.1,401.567 252.5,410C 238.526,414.044 225.192,419.544 212.5,426.5C 232.462,375.707 268.462,341.874 320.5,325C 332.825,310.675 345.825,297.009 359.5,284C 414.962,236.874 470.128,189.374 525,141.5C 525.667,172.5 525.667,203.5 525,234.5C 489.838,264.994 454.672,295.494 419.5,326C 419.645,326.772 419.978,327.439 420.5,328C 469.027,350.217 501.527,386.717 518,437.5C 521.943,454.039 523.443,470.706 522.5,487.5 Z"/></g>
<g><path style="opacity:0.996" fill="#6cc4cd" d="M 522.5,487.5 C 524.045,508.942 519.878,529.275 510,548.5C 479.157,607.777 430.157,638.777 363,641.5C 313.602,640.297 272.602,621.297 240,584.5C 205.036,541.028 194.036,492.028 207,437.5C 208.391,433.559 210.225,429.892 212.5,426.5C 225.192,419.544 238.526,414.044 252.5,410C 307.1,401.567 353.933,416.734 393,455.5C 398.459,462.627 404.292,469.461 410.5,476C 445.478,501.672 482.811,505.505 522.5,487.5 Z"/></g>
<g><path style="opacity:0.011" fill="#fefffe" d="M 405.5,410.5 C 409.31,411.754 409.31,412.754 405.5,413.5C 405.5,412.5 405.5,411.5 405.5,410.5 Z"/></g>
</svg>
